<?xml version="1.0" standalone="no"?>
<!DOCTYPE svg PUBLIC "-//W3C//DTD SVG 20010904//EN"
 "http://www.w3.org/TR/2001/REC-SVG-20010904/DTD/svg10.dtd">
<svg version="1.0" xmlns="http://www.w3.org/2000/svg"
 width="260.000000pt" height="260.000000pt" viewBox="0 0 260.000000 260.000000"
 preserveAspectRatio="xMidYMid meet">
<metadata>
Created by potrace 1.14, written by Peter Selinger 2001-2017
</metadata>
<g transform="translate(0.000000,260.000000) scale(0.100000,-0.100000)"
fill="#000000" stroke="none">
<path d="M1155 2590 c-491 -56 -911 -390 -1079 -858 -94 -263 -94 -601 0 -864
155 -431 516 -744 967 -839 144 -31 370 -31 514 0 517 109 905 497 1014 1014
31 144 31 370 0 514 -95 451 -408 812 -839 967 -161 58 -404 85 -577 66z m182
-460 c74 -26 158 -78 231 -144 l52 -48 0 81 0 81 260 0 260 0 0 -795 0 -795
-260 0 -260 0 0 85 0 85 -72 -61 c-136 -115 -272 -163 -463 -163 -145 0 -223
18 -353 80 -73 35 -111 62 -173 121 -170 163 -251 363 -252 623 0 69 5 152 12
185 75 363 299 603 636 680 93 22 303 14 382 -15z"/>
<path d="M1160 1717 c-153 -34 -264 -166 -291 -348 -29 -198 61 -388 221 -467
48 -24 67 -27 150 -27 85 0 101 3 153 29 265 134 313 545 85 740 -77 67 -210
97 -318 73z"/>
</g>
</svg>
